{
    "asset" : {
        "generator" : "Khronos glTF Blender I/O v1.3.48",
        "version" : "2.0"
    },
    "scene" : 0,
    "scenes" : [
        {
            "name" : "Scene",
            "nodes" : [
                0,
                1,
                2,
                3,
                4,
                5,
                6,
                7,
                8,
                9,
                10,
                11
            ]
        }
    ],
    "nodes" : [
        {
            "name" : "3D \u30d3\u30e5\u30fc: {3D}",
            "rotation" : [
                0.5586056709289551,
                0.21918873488903046,
                -0.1560586839914322,
                0.7845774292945862
            ],
            "scale" : [
                0.30480000376701355,
                0.30480000376701355,
                0.30480000376701355
            ],
            "translation" : [
                11.258261680603027,
                1.7446428537368774,
                26.916854858398438
            ]
        },
        {
            "mesh" : 0,
            "name" : "\u6a19\u6e96\u58c1 \u6a19\u6e96-150mm [272919]",
            "scale" : [
                0.30480000376701355,
                0.30480000376701355,
                0.30480000376701355
            ],
            "translation" : [
                0,
                -8.081551551818848,
                0
            ]
        },
        {
            "mesh" : 1,
            "name" : "\u6a19\u6e96\u58c1 \u6a19\u6e96-150mm [272920]",
            "scale" : [
                0.30480000376701355,
                0.30480000376701355,
                0.30480000376701355
            ],
            "translation" : [
                0,
                -8.081551551818848,
                0
            ]
        },
        {
            "mesh" : 2,
            "name" : "\u6a19\u6e96\u58c1 \u6a19\u6e96-150mm [272921]",
            "scale" : [
                0.30480000376701355,
                0.30480000376701355,
                0.30480000376701355
            ],
            "translation" : [
                0,
                -8.081551551818848,
                0
            ]
        },
        {
            "mesh" : 3,
            "name" : "\u6a19\u6e96\u58c1 \u6a19\u6e96-150mm [272922]",
            "scale" : [
                0.30480000376701355,
                0.30480000376701355,
                0.30480000376701355
            ],
            "translation" : [
                0,
                -8.081551551818848,
                0
            ]
        },
        {
            "mesh" : 4,
            "name" : "\u6a19\u6e96\u58c1 \u6a19\u6e96-150mm [272923]",
            "scale" : [
                0.30480000376701355,
                0.30480000376701355,
                0.30480000376701355
            ],
            "translation" : [
                0,
                -8.081551551818848,
                0
            ]
        },
        {
            "mesh" : 5,
            "name" : "\u6a19\u6e96\u58c1 \u6a19\u6e96-150mm [272924]",
            "scale" : [
                0.30480000376701355,
                0.30480000376701355,
                0.30480000376701355
            ],
            "translation" : [
                0,
                -8.081551551818848,
                0
            ]
        },
        {
            "mesh" : 6,
            "name" : "\u6a19\u6e96\u58c1 \u6a19\u6e96-150mm [272925]",
            "scale" : [
                0.30480000376701355,
                0.30480000376701355,
                0.30480000376701355
            ],
            "translation" : [
                0,
                -8.081551551818848,
                0
            ]
        },
        {
            "mesh" : 7,
            "name" : "\u6a19\u6e96\u58c1 \u6a19\u6e96-150mm [272926]",
            "scale" : [
                0.30480000376701355,
                0.30480000376701355,
                0.30480000376701355
            ],
            "translation" : [
                0,
                -8.081551551818848,
                0
            ]
        },
        {
            "mesh" : 8,
            "name" : "\u6a19\u6e96\u58c1 \u6a19\u6e96-150mm [272927]",
            "scale" : [
                0.30480000376701355,
                0.30480000376701355,
                0.30480000376701355
            ],
            "translation" : [
                0,
                -8.081551551818848,
                0
            ]
        },
        {
            "mesh" : 9,
            "name" : "\u6a19\u6e96\u5c4b\u6839 \u30b3\u30f3\u30af\u30ea\u30fc\u30c8-200mm [273017]",
            "scale" : [
                0.30480000376701355,
                0.30480000376701355,
                0.30480000376701355
            ],
            "translation" : [
                0,
                -8.081551551818848,
                0
            ]
        },
        {
            "mesh" : 10,
            "name" : "\u30ec\u30d9\u30eb \u8a2d\u8a08GL [97000]",
            "rotation" : [
                0.5,
                -0.5,
                0.5000000596046448,
                0.4999999403953552
            ],
            "scale" : [
                30.479999542236328,
                30.479999542236328,
                30.479999542236328
            ],
            "translation" : [
                -14.091075897216797,
                -8.081551551818848,
                11.741010665893555
            ]
        }
    ],
    "materials" : [
        {
            "alphaMode" : "BLEND",
            "emissiveFactor" : [
                0,
                0,
                0
            ],
            "name" : "\u30de\u30c6\u30ea\u30a2\u30eb",
            "pbrMetallicRoughness" : {
                "baseColorFactor" : [
                    0.800000011920929,
                    0.800000011920929,
                    0.800000011920929,
                    0.4000000059604645
                ],
                "metallicFactor" : 0,
                "roughnessFactor" : 0.5
            }
        }
    ],
    "meshes" : [
        {
            "name" : "\u6a19\u6e96\u58c1 \u6a19\u6e96-150mm [272919] Geometry.001",
            "primitives" : [
                {
                    "attributes" : {
                        "POSITION" : 0,
                        "NORMAL" : 1,
                        "TEXCOORD_0" : 2
                    },
                    "indices" : 3,
                    "material" : 0
                }
            ]
        },
        {
            "name" : "\u6a19\u6e96\u58c1 \u6a19\u6e96-150mm [272920] Geometry.001",
            "primitives" : [
                {
                    "attributes" : {
                        "POSITION" : 4,
                        "NORMAL" : 5,
                        "TEXCOORD_0" : 6
                    },
                    "indices" : 7,
                    "material" : 0
                }
            ]
        },
        {
            "name" : "\u6a19\u6e96\u58c1 \u6a19\u6e96-150mm [272921] Geometry.001",
            "primitives" : [
                {
                    "attributes" : {
                        "POSITION" : 8,
                        "NORMAL" : 9,
                        "TEXCOORD_0" : 10
                    },
                    "indices" : 11,
                    "material" : 0
                }
            ]
        },
        {
            "name" : "\u6a19\u6e96\u58c1 \u6a19\u6e96-150mm [272922] Geometry.001",
            "primitives" : [
                {
                    "attributes" : {
                        "POSITION" : 12,
                        "NORMAL" : 13,
                        "TEXCOORD_0" : 14
                    },
                    "indices" : 15,
                    "material" : 0
                }
            ]
        },
        {
            "name" : "\u6a19\u6e96\u58c1 \u6a19\u6e96-150mm [272923] Geometry.001",
            "primitives" : [
                {
                    "attributes" : {
                        "POSITION" : 16,
                        "NORMAL" : 17,
                        "TEXCOORD_0" : 18
                    },
                    "indices" : 7,
                    "material" : 0
                }
            ]
        },
        {
            "name" : "\u6a19\u6e96\u58c1 \u6a19\u6e96-150mm [272924] Geometry.001",
            "primitives" : [
                {
                    "attributes" : {
                        "POSITION" : 19,
                        "NORMAL" : 20,
                        "TEXCOORD_0" : 21
                    },
                    "indices" : 11,
                    "material" : 0
                }
            ]
        },
        {
            "name" : "\u6a19\u6e96\u58c1 \u6a19\u6e96-150mm [272925] Geometry.001",
            "primitives" : [
                {
                    "attributes" : {
                        "POSITION" : 22,
                        "NORMAL" : 23,
                        "TEXCOORD_0" : 24
                    },
                    "indices" : 15,
                    "material" : 0
                }
            ]
        },
        {
            "name" : "\u6a19\u6e96\u58c1 \u6a19\u6e96-150mm [272926] Geometry.001",
            "primitives" : [
                {
                    "attributes" : {
                        "POSITION" : 25,
                        "NORMAL" : 26,
                        "TEXCOORD_0" : 27
                    },
                    "indices" : 28,
                    "material" : 0
                }
            ]
        },
        {
            "name" : "\u6a19\u6e96\u58c1 \u6a19\u6e96-150mm [272927] Geometry.001",
            "primitives" : [
                {
                    "attributes" : {
                        "POSITION" : 29,
                        "NORMAL" : 30,
                        "TEXCOORD_0" : 31
                    },
                    "indices" : 11,
                    "material" : 0
                }
            ]
        },
        {
            "name" : "\u6a19\u6e96\u5c4b\u6839 \u30b3\u30f3\u30af\u30ea\u30fc\u30c8-200mm [273017] Geometry.001",
            "primitives" : [
                {
                    "attributes" : {
                        "POSITION" : 32,
                        "NORMAL" : 33,
                        "TEXCOORD_0" : 34
                    },
                    "indices" : 35,
                    "material" : 0
                }
            ]
        },
        {
            "name" : "\u30ec\u30d9\u30eb \u8a2d\u8a08GL [97000]_[91453] Geometry.001",
            "primitives" : [
                {
                    "attributes" : {
                        "POSITION" : 36,
                        "NORMAL" : 37,
                        "TEXCOORD_0" : 38
                    },
                    "indices" : 39
                }
            ]
        }
    ],
    "accessors" : [
        {
            "bufferView" : 0,
            "componentType" : 5126,
            "count" : 32,
            "max" : [
                84.63985443115234,
                53.477691650390625,
                34.92636489868164
            ],
            "min" : [
                -15.261717796325684,
                -1.7763568394002505e-14,
                34.43423843383789
            ],
            "type" : "VEC3"
        },
        {
            "bufferView" : 1,
            "componentType" : 5126,
            "count" : 32,
            "type" : "VEC3"
        },
        {
            "bufferView" : 2,
            "componentType" : 5126,
            "count" : 32,
            "type" : "VEC2"
        },
        {
            "bufferView" : 3,
            "componentType" : 5123,
            "count" : 60,
            "type" : "SCALAR"
        },
        {
            "bufferView" : 4,
            "componentType" : 5126,
            "count" : 28,
            "max" : [
                -14.76959228515625,
                53.477691650390625,
                34.43423843383789
            ],
            "min" : [
                -15.261717796325684,
                -1.3234889800848443e-23,
                21.31087875366211
            ],
            "type" : "VEC3"
        },
        {
            "bufferView" : 5,
            "componentType" : 5126,
            "count" : 28,
            "type" : "VEC3"
        },
        {
            "bufferView" : 6,
            "componentType" : 5126,
            "count" : 28,
            "type" : "VEC2"
        },
        {
            "bufferView" : 7,
            "componentType" : 5123,
            "count" : 48,
            "type" : "SCALAR"
        },
        {
            "bufferView" : 8,
            "componentType" : 5126,
            "count" : 28,
            "max" : [
                -15.261717796325684,
                53.477691650390625,
                21.80300521850586
            ],
            "min" : [
                -73.6606674194336,
                0,
                21.31087875366211
            ],
            "type" : "VEC3"
        },
        {
            "bufferView" : 9,
            "componentType" : 5126,
            "count" : 28,
            "type" : "VEC3"
        },
        {
            "bufferView" : 10,
            "componentType" : 5126,
            "count" : 28,
            "type" : "VEC2"
        },
        {
            "bufferView" : 11,
            "componentType" : 5123,
            "count" : 48,
            "type" : "SCALAR"
        },
        {
            "bufferView" : 12,
            "componentType" : 5126,
            "count" : 28,
            "max" : [
                -73.16854095458984,
                53.477691650390625,
                21.31087875366211
            ],
            "min" : [
                -73.6606674194336,
                0,
                -10.51326847076416
            ],
            "type" : "VEC3"
        },
        {
            "bufferView" : 13,
            "componentType" : 5126,
            "count" : 28,
            "type" : "VEC3"
        },
        {
            "bufferView" : 14,
            "componentType" : 5126,
            "count" : 28,
            "type" : "VEC2"
        },
        {
            "bufferView" : 15,
            "componentType" : 5123,
            "count" : 48,
            "type" : "SCALAR"
        },
        {
            "bufferView" : 16,
            "componentType" : 5126,
            "count" : 28,
            "max" : [
                -62.83389663696289,
                53.477691650390625,
                -10.021142959594727
            ],
            "min" : [
                -73.16854095458984,
                0,
                -10.51326847076416
            ],
            "type" : "VEC3"
        },
        {
            "bufferView" : 17,
            "componentType" : 5126,
            "count" : 28,
            "type" : "VEC3"
        },
        {
            "bufferView" : 18,
            "componentType" : 5126,
            "count" : 28,
            "type" : "VEC2"
        },
        {
            "bufferView" : 19,
            "componentType" : 5126,
            "count" : 28,
            "max" : [
                -62.83389663696289,
                53.477691650390625,
                -10.51326847076416
            ],
            "min" : [
                -63.32602310180664,
                0,
                -63.00670623779297
            ],
            "type" : "VEC3"
        },
        {
            "bufferView" : 20,
            "componentType" : 5126,
            "count" : 28,
            "type" : "VEC3"
        },
        {
            "bufferView" : 21,
            "componentType" : 5126,
            "count" : 28,
            "type" : "VEC2"
        },
        {
            "bufferView" : 22,
            "componentType" : 5126,
            "count" : 28,
            "max" : [
                -24.940195083618164,
                53.477691650390625,
                -62.51457977294922
            ],
            "min" : [
                -62.83389663696289,
                0,
                -63.00670623779297
            ],
            "type" : "VEC3"
        },
        {
            "bufferView" : 23,
            "componentType" : 5126,
            "count" : 28,
            "type" : "VEC3"
        },
        {
            "bufferView" : 24,
            "componentType" : 5126,
            "count" : 28,
            "type" : "VEC2"
        },
        {
            "bufferView" : 25,
            "componentType" : 5126,
            "count" : 28,
            "max" : [
                -24.940195083618164,
                53.477691650390625,
                -10.021142959594727
            ],
            "min" : [
                -25.432321548461914,
                -1.3234889800848443e-23,
                -62.51457977294922
            ],
            "type" : "VEC3"
        },
        {
            "bufferView" : 26,
            "componentType" : 5126,
            "count" : 28,
            "type" : "VEC3"
        },
        {
            "bufferView" : 27,
            "componentType" : 5126,
            "count" : 28,
            "type" : "VEC2"
        },
        {
            "bufferView" : 28,
            "componentType" : 5123,
            "count" : 48,
            "type" : "SCALAR"
        },
        {
            "bufferView" : 29,
            "componentType" : 5126,
            "count" : 28,
            "max" : [
                84.63985443115234,
                53.477691650390625,
                -10.021142959594727
            ],
            "min" : [
                -24.940195083618164,
                -1.7763568394002505e-14,
                -10.51326847076416
            ],
            "type" : "VEC3"
        },
        {
            "bufferView" : 30,
            "componentType" : 5126,
            "count" : 28,
            "type" : "VEC3"
        },
        {
            "bufferView" : 31,
            "componentType" : 5126,
            "count" : 28,
            "type" : "VEC2"
        },
        {
            "bufferView" : 32,
            "componentType" : 5126,
            "count" : 60,
            "max" : [
                84.88591766357422,
                53.477691650390625,
                35.41849136352539
            ],
            "min" : [
                -73.90673065185547,
                52.985565185546875,
                -63.00670623779297
            ],
            "type" : "VEC3"
        },
        {
            "bufferView" : 33,
            "componentType" : 5126,
            "count" : 60,
            "type" : "VEC3"
        },
        {
            "bufferView" : 34,
            "componentType" : 5126,
            "count" : 60,
            "type" : "VEC2"
        },
        {
            "bufferView" : 35,
            "componentType" : 5123,
            "count" : 108,
            "type" : "SCALAR"
        },
        {
            "bufferView" : 36,
            "componentType" : 5126,
            "count" : 3,
            "max" : [
                0.0037883876357227564,
                0,
                -9.180857104646863e-17
            ],
            "min" : [
                -0.0037883876357227564,
                0,
                -0.006561679765582085
            ],
            "type" : "VEC3"
        },
        {
            "bufferView" : 37,
            "componentType" : 5126,
            "count" : 3,
            "type" : "VEC3"
        },
        {
            "bufferView" : 38,
            "componentType" : 5126,
            "count" : 3,
            "type" : "VEC2"
        },
        {
            "bufferView" : 39,
            "componentType" : 5123,
            "count" : 3,
            "type" : "SCALAR"
        }
    ],
    "bufferViews" : [
        {
            "buffer" : 0,
            "byteLength" : 384,
            "byteOffset" : 0
        },
        {
            "buffer" : 0,
            "byteLength" : 384,
            "byteOffset" : 384
        },
        {
            "buffer" : 0,
            "byteLength" : 256,
            "byteOffset" : 768
        },
        {
            "buffer" : 0,
            "byteLength" : 120,
            "byteOffset" : 1024
        },
        {
            "buffer" : 0,
            "byteLength" : 336,
            "byteOffset" : 1144
        },
        {
            "buffer" : 0,
            "byteLength" : 336,
            "byteOffset" : 1480
        },
        {
            "buffer" : 0,
            "byteLength" : 224,
            "byteOffset" : 1816
        },
        {
            "buffer" : 0,
            "byteLength" : 96,
            "byteOffset" : 2040
        },
        {
            "buffer" : 0,
            "byteLength" : 336,
            "byteOffset" : 2136
        },
        {
            "buffer" : 0,
            "byteLength" : 336,
            "byteOffset" : 2472
        },
        {
            "buffer" : 0,
            "byteLength" : 224,
            "byteOffset" : 2808
        },
        {
            "buffer" : 0,
            "byteLength" : 96,
            "byteOffset" : 3032
        },
        {
            "buffer" : 0,
            "byteLength" : 336,
            "byteOffset" : 3128
        },
        {
            "buffer" : 0,
            "byteLength" : 336,
            "byteOffset" : 3464
        },
        {
            "buffer" : 0,
            "byteLength" : 224,
            "byteOffset" : 3800
        },
        {
            "buffer" : 0,
            "byteLength" : 96,
            "byteOffset" : 4024
        },
        {
            "buffer" : 0,
            "byteLength" : 336,
            "byteOffset" : 4120
        },
        {
            "buffer" : 0,
            "byteLength" : 336,
            "byteOffset" : 4456
        },
        {
            "buffer" : 0,
            "byteLength" : 224,
            "byteOffset" : 4792
        },
        {
            "buffer" : 0,
            "byteLength" : 336,
            "byteOffset" : 5016
        },
        {
            "buffer" : 0,
            "byteLength" : 336,
            "byteOffset" : 5352
        },
        {
            "buffer" : 0,
            "byteLength" : 224,
            "byteOffset" : 5688
        },
        {
            "buffer" : 0,
            "byteLength" : 336,
            "byteOffset" : 5912
        },
        {
            "buffer" : 0,
            "byteLength" : 336,
            "byteOffset" : 6248
        },
        {
            "buffer" : 0,
            "byteLength" : 224,
            "byteOffset" : 6584
        },
        {
            "buffer" : 0,
            "byteLength" : 336,
            "byteOffset" : 6808
        },
        {
            "buffer" : 0,
            "byteLength" : 336,
            "byteOffset" : 7144
        },
        {
            "buffer" : 0,
            "byteLength" : 224,
            "byteOffset" : 7480
        },
        {
            "buffer" : 0,
            "byteLength" : 96,
            "byteOffset" : 7704
        },
        {
            "buffer" : 0,
            "byteLength" : 336,
            "byteOffset" : 7800
        },
        {
            "buffer" : 0,
            "byteLength" : 336,
            "byteOffset" : 8136
        },
        {
            "buffer" : 0,
            "byteLength" : 224,
            "byteOffset" : 8472
        },
        {
            "buffer" : 0,
            "byteLength" : 720,
            "byteOffset" : 8696
        },
        {
            "buffer" : 0,
            "byteLength" : 720,
            "byteOffset" : 9416
        },
        {
            "buffer" : 0,
            "byteLength" : 480,
            "byteOffset" : 10136
        },
        {
            "buffer" : 0,
            "byteLength" : 216,
            "byteOffset" : 10616
        },
        {
            "buffer" : 0,
            "byteLength" : 36,
            "byteOffset" : 10832
        },
        {
            "buffer" : 0,
            "byteLength" : 36,
            "byteOffset" : 10868
        },
        {
            "buffer" : 0,
            "byteLength" : 24,
            "byteOffset" : 10904
        },
        {
            "buffer" : 0,
            "byteLength" : 6,
            "byteOffset" : 10928
        }
    ],
    "buffers" : [
        {
            "byteLength" : 10936,
            "uri" : "data:application/octet-stream;base64,"
        }
    ]
}
